<?xml version="1.0" encoding="utf-8"?>
<!-- Generator: Adobe Illustrator 26.1.0, SVG Export Plug-In . SVG Version: 6.00 Build 0)  -->
<svg version="1.1" id="Layer_1" xmlns="http://www.w3.org/2000/svg" xmlns:xlink="http://www.w3.org/1999/xlink" x="0px" y="0px"
	 viewBox="0 0 512 124" style="enable-background:new 0 0 512 124;" xml:space="preserve">
<style type="text/css">
	.st0{fill:#E7EBFC;}
</style>
<g>
	<path class="st0" d="M16.3,99.3l8.5-22.8l7.9,22.9H16.3V99.3z M41,122.4h7.8L28.5,67.3H21L0,122.4h7.8l6.1-17h21L41,122.4z
		 M77.7,110.7c0,4.5-3.6,6.9-9.9,6.9c-5.1,0-8.3-1.4-10.3-4.7l-7.4,1.3c2.9,6,8.9,8.7,17.3,8.7c11.6,0,17.5-6.3,17.5-13.2
		c0-8.7-8.1-11-17.3-13c-4.5-0.9-9.8-2.5-9.8-6.5c0-2.9,2.7-6.1,8.3-6.1s9,3.8,9.6,5.4l6.5-2.7c-3.1-5.8-9-7.9-15.2-7.9
		c-9.8,0-16.1,4.7-16.1,12.3c0,8.7,7.4,10.3,14.6,11.9C71.7,104.5,77.7,106,77.7,110.7z M100.4,67.3l-7.2,3.1v10.1h-6.7v5.8h6.7
		v26.9c-0.2,5.4-0.2,9.4,8.1,9.4c2.7,0,5.6-0.5,6.9-0.7v-5.6c-1.4,0.4-3.3,0.9-4.5,0.9c-3.1,0-3.1-2.2-3.1-7V86.3h7.6v-5.8h-7.6
		V67.3H100.4z M114.3,80.5v41.9h7v-19.3c0-3.6-0.2-7.8,1.8-10.8c2.3-3.8,5.6-5.1,12.6-5.2v-7.2c-2.9,0.2-10.3,0.2-14.3,8.1v-7.4
		C121.6,80.5,114.3,80.5,114.3,80.5z M177.2,67.3v6.9h31.4l-31.2,41.2v7.2h40.3v-6.7h-32l31.2-41.5v-6.9h-39.7V67.3z M261.7,80.5
		v41.9h7V98.6c0-3.1,0-6.3,3.1-9.4c2.2-2.2,4.9-3.3,7.9-3.3c3.8,0,7.8,1.8,9,5.8c0.4,1.4,0.4,2.7,0.4,6.9v23.7h7V97.7
		c0-3.6,0-6.1-0.7-8.5c-2-6.9-8.5-9.6-13.7-9.6c-2.5,0-9.2,0.5-13,7.4v-6.3h-7V80.5z M370.8,112.3c-1.4,2.9-4.2,5.4-9.8,5.4
		c-4.7,0-12.6-2.9-12.6-16.8c0-3.8,0.7-16.8,12.3-16.8c5.8,0,8.5,3.3,9.8,6l6.5-2.7c-4-6.7-11.4-8.3-16.6-8.3
		c-13.4,0-19.9,10.7-19.9,22.6c0,10.3,5.6,21.7,20.4,21.7c8.5,0,13.4-4.2,15.9-8.3L370.8,112.3z M227.8,97.1H250
		c-0.5-11-6.9-12.8-11.2-12.8C232.8,84.3,228.7,88.7,227.8,97.1z M255.8,114.5c-2.3,4.2-7,8.7-16.1,8.7c-12.3,0-19.5-8.3-19.5-22.4
		c0-15.7,10.3-21.7,19.1-21.7c7.8,0,15,4.3,17.5,14.8c0.7,3.6,0.7,6.7,0.7,8.5h-30c-0.2,7,2.7,15.9,12.6,15.7c4,0,6.9-2,8.7-4.7
		L255.8,114.5z M307.8,97.1H330c-0.5-11-6.9-12.8-11.2-12.8C312.6,84.3,308.5,88.7,307.8,97.1z M335.6,114.5
		c-2.3,4.2-7,8.7-16.1,8.7c-12.3,0-19.5-8.3-19.5-22.4c0-15.7,10.3-21.7,19.1-21.7c7.8,0,15,4.3,17.5,14.8c0.7,3.6,0.7,6.7,0.7,8.5
		h-30.2c-0.2,7,2.7,15.9,12.6,15.7c4,0,6.9-2,8.7-4.7L335.6,114.5z M415.6,122.4h-7.4c0,0-0.7-2.9-0.9-6.1
		c-2.2,2.2-6.1,6.7-14.1,6.7c-8.1,0-14.1-4.9-14.1-11.9c0-2.2,0.5-4.5,1.8-6.3c2.3-3.6,6.9-6.3,19.3-7.4l6.7-0.5v-1.1
		c0-4.3,0-11.6-9.4-11.6c-5.8,0-7.9,2.9-8.5,5.4l-6.5-2.7c0.2-0.2,0.2-0.5,0.4-0.7c2.5-4.5,7.4-7.4,14.4-7.4c3.8,0,8.9,0.9,12.1,3.6
		c4.7,3.6,4.5,10.5,4.5,10.5l0.4,21.5C414.3,114.5,414.7,120.6,415.6,122.4z M405.8,110.9c1.1-2.3,1.1-3.3,1.1-9.4
		c-2.7,0.4-6.5,0.9-11,2c-7.8,1.6-9,4.7-9,7.6c0,3.4,2.7,6.1,7.9,6.1C399.7,117.2,403.9,115.2,405.8,110.9z M172.3,122.4h-7.2
		c0,0-0.7-2.9-0.9-6.1c-2.2,2.2-6.1,6.7-14.1,6.7c-8.1,0-14.3-4.9-14.3-11.9c0-2.2,0.5-4.5,1.8-6.3c2.3-3.6,6.9-6.3,19.3-7.4
		l6.7-0.5v-1.1c0-4.3,0-11.6-9.4-11.6c-6,0-7.9,2.9-8.5,5.4l-6.5-2.7c0.2-0.2,0.2-0.5,0.4-0.7c2.5-4.5,7.4-7.4,14.4-7.4
		c3.8,0,8.9,0.9,12.1,3.6c4.7,3.6,4.5,10.5,4.5,10.5l0.2,21.5C171,114.5,171.4,120.6,172.3,122.4z M162.7,110.9
		c1.1-2.3,1.1-3.3,1.1-9.4c-2.7,0.4-6.5,0.9-11,2c-7.8,1.6-9,4.7-9,7.6c0,3.4,2.7,6.1,7.9,6.1C156.4,117.2,160.6,115.2,162.7,110.9z
		"/>
	<path class="st0" d="M461.3,87.2c-1.1,0.7-2.2,1.4-3.3,2.2c-12.6-7-39.7-20.6-42.1-21.7c-2.5-1.3-6.9-3.1-6.3-7.2
		c0.7-5.8,11-18.6,15.4-24c23.5-28.5,34-37.4,40.8-36.5c7.4,0.9,11.6,8.7,12.1,44.4c-4.2-1.3-8.7-2.5-13.5-3.8
		c-0.4-5.2-1.4-13-1.8-15.7c-0.4-3.1-1.1-4.2-2.2-4.3c-1.4-0.2-4.9,3.1-7.9,6.3c-1.4,1.4-5.4,5.4-9.8,9.9c-3.6-0.2-6.1,0.5-7.4,2.3
		c-1.1,1.4-1.3,3.4-0.7,6c-2.3,2.3-4.3,4.3-5.8,5.8c-4.9,4.9-10.1,8.9-10.3,10.8c-0.2,1.6,2.2,3.3,5.8,5.4
		C432.6,71.7,453.7,83.2,461.3,87.2z M494.2,51.4c-8.3-2.9-28.7-10.5-50.2-13.4c-7.4-0.9-10.3,1.6-7.4,8.7c3.1,7,10.8,18.6,19,27.5
		c8.1,8.7,17,11,19.9-2.3c0.2-0.5,0.2-0.9,0.4-1.4c0.7-3.4,1.3-6.9,1.4-9.8c-3.6-1.6-7.8-3.4-11.7-5.1c0.2,3.1,0.5,8.5,0.7,12.5
		c0,0.5,0,1.1,0,1.4c0.2,6.7-2,6.7-5.8,4c-4.3-3.1-17.9-21-19.5-28.9c0-0.5,0.2-0.5,0.4-0.4c0.2,0,0.2,0,0.4,0.2l0,0l0,0
		c3.1,1.3,13.2,5.2,23.5,9.6c4.2,1.8,8.3,3.4,11.9,5.2c3.6,1.6,6.9,3.3,9.4,4.5c4.5,2.3,6.1,4,4.3,6c-9.2,9.4-41.7,22.8-52.9,39.4
		c0,0,0,0-0.2,0.2c-0.2,0.2-0.2,0.4-0.4,0.5c0,0,0,0.2-0.2,0.2c-0.5,1.1-1.3,2.7-1.6,4.9c-0.5,3.6,1.4,6.9,6.7,8.3
		c1.3,0.4,2.7,0.7,4.3,0.9c0.4,0,0.5,0,0.9,0c9.9,0.5,35.9-5.2,43.7-8.7c8.1-3.6,5.8-7.2,3.4-9c-1.8-1.4-10.8-6.5-15.2-8.9
		c-1.3,0.7-2.2,1.3-3.3,2.2c7.4,4.5,10.5,6.9,12.3,8.1c0.7,0.5,0.4,1.1-0.7,1.3c-0.2,0-0.5,0-0.7,0c-7,0.5-20.6,1.4-26.9,1.8
		c-0.9,0-2,0.2-2.5,0.2c1.6-1.4,3.3-2.7,4.2-3.4c13.5-9.6,36.1-22.9,42.8-28.7C509.5,74.4,522.9,61.4,494.2,51.4z"/>
</g>
</svg>
