<?xml version="1.0" encoding="utf-8"?>
<!-- Generator: Adobe Illustrator 26.1.0, SVG Export Plug-In . SVG Version: 6.00 Build 0)  -->
<svg version="1.1" id="Layer_1" xmlns="http://www.w3.org/2000/svg" xmlns:xlink="http://www.w3.org/1999/xlink" x="0px" y="0px"
	 viewBox="0 0 512 116" style="enable-background:new 0 0 512 116;" xml:space="preserve">
<style type="text/css">
	.st0{fill:#F0F2F8;}
	.st1{fill:#EEF0F7;}
	.st2{fill:#EAECF4;}
	.st3{fill:#E7EAF3;}
	.st4{fill:#E5E8F2;}
	.st5{fill:#DFE3EF;}
	.st6{fill:#DBDFED;}
	.st7{fill:#D6DBEB;}
	.st8{fill:#D6DAEA;}
	.st9{fill:#DADEEC;}
	.st10{fill:#D5DAEA;}
	.st11{fill:#D8DCEB;}
</style>
<g>
	<path class="st0" d="M29.8,115.5H3.2c-1.8,0-3.2-1.4-3.2-3.2s1.4-3.2,3.2-3.2h26.6c1.8,0,3.2,1.4,3.2,3.2S31.6,115.5,29.8,115.5z"
		/>
	<path class="st1" d="M71.7,115.5H45.2c-1.8,0-3.2-1.4-3.2-3.2s1.4-3.2,3.2-3.2h26.6c1.8,0,3.2,1.4,3.2,3.2S73.5,115.5,71.7,115.5z"
		/>
	<path class="st2" d="M113.7,115.5H87.1c-1.8,0-3.2-1.4-3.2-3.2s1.4-3.2,3.2-3.2h26.6c1.8,0,3.2,1.4,3.2,3.2
		S115.5,115.5,113.7,115.5z"/>
	<path class="st3" d="M155.7,115.5h-26.6c-1.8,0-3.2-1.4-3.2-3.2s1.4-3.2,3.2-3.2h26.6c1.8,0,3.2,1.4,3.2,3.2
		S157.4,115.5,155.7,115.5z"/>
	<path class="st4" d="M197.6,115.5H171c-1.8,0-3.2-1.4-3.2-3.2s1.4-3.2,3.2-3.2h26.6c1.8,0,3.2,1.4,3.2,3.2S199.4,115.5,197.6,115.5
		z"/>
	<path class="st5" d="M239.6,115.5H213c-1.8,0-3.2-1.4-3.2-3.2s1.4-3.2,3.2-3.2h26.6c1.8,0,3.2,1.4,3.2,3.2S241.3,115.5,239.6,115.5
		z"/>
	<path class="st6" d="M281.5,115.5H255c-1.8,0-3.2-1.4-3.2-3.2s1.4-3.2,3.2-3.2h26.6c1.8,0,3.2,1.4,3.2,3.2S283.3,115.5,281.5,115.5
		z"/>
	<path class="st7" d="M323.5,115.5h-26.6c-1.8,0-3.2-1.4-3.2-3.2s1.4-3.2,3.2-3.2h26.6c1.8,0,3.2,1.4,3.2,3.2
		S325.3,115.5,323.5,115.5z"/>
	<path class="st8" d="M365.4,115.5h-26.6c-1.8,0-3.2-1.4-3.2-3.2s1.4-3.2,3.2-3.2h26.6c1.8,0,3.2,1.4,3.2,3.2
		S367.2,115.5,365.4,115.5z"/>
	<path class="st9" d="M407.4,115.5h-26.6c-1.8,0-3.2-1.4-3.2-3.2s1.4-3.2,3.2-3.2h26.6c1.8,0,3.2,1.4,3.2,3.2
		S409.2,115.5,407.4,115.5z"/>
	<path class="st8" d="M449.3,115.5h-26.6c-1.8,0-3.2-1.4-3.2-3.2s1.4-3.2,3.2-3.2h26.6c1.8,0,3.2,1.4,3.2,3.2
		S451.1,115.5,449.3,115.5z"/>
	<path class="st10" d="M491.3,115.5h-26.6c-1.8,0-3.2-1.4-3.2-3.2s1.4-3.2,3.2-3.2h26.6c1.8,0,3.2,1.4,3.2,3.2
		S493.1,115.5,491.3,115.5z"/>
	<path class="st11" d="M232.9,0.5v34.3c-5.3-8-14.2-12.7-23.8-12.6c-8.7,0-15.9,3.1-22.1,9.2c-5.9,5.9-9.1,13.9-9,22.2
		c0,9,3.1,16.4,9.1,22.5c5.9,6.3,13.3,9.4,21.7,9.4c4.9,0,9.4-1.1,13.4-2.9c3.9-2.1,7.6-5,10.8-9v10.3h7.7V0.5H232.9z M30.1,21.4
		c-4.2,0-8.4,1.1-12.3,3.5c-3.3,2.3-6.1,5.2-8.3,8.5V23H1.8v61h7.7V58.1c0-7.7,0.8-13.3,2.2-17.1c1.4-3.5,3.8-6.6,6.9-8.8
		c3.1-2.1,6.4-3.2,9.9-3.2c3.1,0,5.7,0.8,8.1,2.4c2.2,1.5,3.9,3.7,4.8,6.3c0.8,2.8,1.3,7.7,1.3,15.1v31.2h7.7V60.2
		c0-8.8,0.7-15.1,2.1-18.9c1.4-3.6,3.8-6.7,6.9-9S65.7,29,69.5,29c3.1,0,5.6,0.7,7.8,2.2c2.2,1.4,3.8,3.5,4.8,5.9
		c1,2.5,1.4,7,1.4,13.6v33.3h7.8V50.8c0-7.6-0.7-13.4-2.2-17.2c-2.9-7.5-10.1-12.4-18.2-12.2c-4.3,0-8.4,1.4-12.3,3.8
		c-3.8,2.5-7,6.2-9.6,10.9c-1.1-3.5-2.7-6.3-4.2-8.3c-1.7-2-4-3.6-6.4-4.6c-2.7-1.3-5.3-1.8-8.4-1.8L30.1,21.4z M135.4,21.4
		c-9.1,0-16.6,3.4-22.4,10.2c-5.5,6-8.5,13.8-8.4,22c0,8.4,2.8,15.9,8.7,22.4c5.6,6.3,13,9.5,22,9.5c8.4,0.2,16.5-3.3,22-9.6
		c5.6-6,8.6-14,8.5-22.2c0-8.4-2.7-15.8-8.1-22.1c-5.5-6.6-13.8-10.3-22.4-10.2L135.4,21.4z M285.7,21.4c-9.8,0-17.6,3.8-23.6,11.5
		c-4.6,6-6.9,12.9-6.9,20.7c0,8.3,2.8,15.5,8.3,22.1c5.6,6.6,14,10.2,22.7,9.8c7.8,0.1,15.3-2.8,21-8.1c2.8-2.5,5.3-6,7.3-10.2
		l-6.3-3.5c-2.4,4.1-4.5,7-6.6,8.7c-4.5,3.8-10.2,5.9-16.1,5.9c-6.2,0-11.5-2.2-15.7-6.7c-4.3-4.6-6.6-10.3-6.7-17.5h53.4
		c0-8.4-2.2-15.4-6.6-21C304.2,25.5,295.2,21.1,285.7,21.4z M351.2,21.4c-2.9,0-5.7,0.8-8.4,2.5c-3.1,2.1-5.8,4.8-7.8,8v-9.1h-8.1
		v61h8.1V63.4c0-10.6,0.6-17.8,1.5-21.1c1.4-4.6,3.2-8,5.6-10.1c2.1-2,4.9-3.2,7.8-3.2c1,0,2.4,0.3,4.2,1.1l4.2-6.7
		c-2.7-1.4-4.9-2.1-7.1-2.1V21.4z M397.3,21.4c-4.5,0-8.5,1-12.3,3.1c-4,2.3-7.5,5.5-10.2,9.4v-11h-7.7v61h7.7V61.4
		c0-8,0.4-13.6,1.1-16.6c1.1-4.6,3.6-8.4,7.3-11.6c3.8-3.2,8-4.8,12.6-4.8c4.2,0,7.4,1.1,9.8,3.1c2.7,2.3,4.6,5.5,5.2,9.1
		c0.7,2.4,1,7,1,14.1v29.1h7.7V52.6c0-8.4-0.8-14.5-2.5-18.5s-4.2-7-7.7-9.4c-3.5-2.3-7.7-3.6-11.9-3.5L397.3,21.4z M463.1,21.4
		c-8.3,0-15.4,3.1-21.3,9.2c-5.9,6-9.1,14.1-9,22.5c-0.2,8.5,3,16.7,8.8,22.8c10.7,11.8,28.9,12.6,40.7,1.9c1.5-1.4,2.9-2.9,4.1-4.6
		v10.6h7.6V22.8h-7.4V34c-2.6-4-6.2-7.3-10.3-9.6c-4-2-8.4-3.1-12.9-2.9H463.1z M285.7,28.8c3.6,0,7,0.8,10.1,2.4
		c3.4,1.4,5.9,3.5,7.8,6c1.8,2.5,3.4,5.7,4.5,9.9h-44.3c1.7-5.6,3.9-9.8,7-12.6c4.2-3.8,9.2-5.6,15-5.6V28.8z M463.8,28.8
		c6.6,0,12,2.4,16.6,7.1c4.3,4.8,6.6,10.6,6.6,17.8c0,4.6-1,8.8-2.8,12.4c-4.1,7.4-11.8,12-20.3,12c-4.2,0-8.1-1.1-11.7-3.2
		c-11.1-7.4-14.8-21.9-8.5-33.7c3.9-7.6,11.7-12.3,20.1-12.3V28.8z M135.1,29.1c6.3,0,11.7,2.4,16.2,7.1c7.4,8.1,9,20.1,3.8,29.8
		c-3.8,7.4-11.5,12.1-19.9,12c-8.4,0.1-16-4.6-19.9-12c-2-3.8-3.1-8-3.1-12.3c0-6.9,2.2-12.6,6.7-17.5c4.5-4.8,9.8-7.1,16.2-7.1
		L135.1,29.1z M209.5,29.5c13.1,0,23.8,10.6,23.8,23.8c0,0.2,0,0.5,0,0.7c0.1,4.3-1,8.6-3.1,12.4c-4.4,7.3-12.3,11.8-20.8,11.9
		c-8.6-0.1-16.4-4.8-20.6-12.3c-4.2-7.6-4.2-16.8,0-24.3C192.9,34.1,200.9,29.5,209.5,29.5z M505.3,27.7h1.1c0.6,0,1,0,1.1-0.3
		c0.3,0,0.4-0.3,0.4-0.6l-0.3-0.4c0-0.3,0-0.3-0.3-0.4h-2.1V27.7z M504.4,30.9v-5.6h3.4c0.4,0.1,0.7,0.4,0.8,0.7l0.3,0.7
		c0,0.6-0.3,0.8-0.4,1.1c-0.4,0.3-0.9,0.5-1.4,0.6l0.6,0.3l0.8,1.1l0.7,1.1h-1.1l-0.4-1l-1-1.4h-1.3v2.4L504.4,30.9z M506.7,23.5
		c-0.7,0-1.4,0.1-2.1,0.7c-0.7,0.3-1.3,0.8-1.5,1.5c-0.9,1.4-0.9,3.1,0,4.5c0.3,0.7,0.8,1.3,1.5,1.5c0.7,0.6,1.4,0.7,2.1,0.7
		c0.8,0,1.5-0.1,2.2-0.7c0.7-0.3,1.4-0.8,1.7-1.5c0.3-0.7,0.6-1.4,0.6-2.2c0-0.7-0.3-1.4-0.6-2.2c-0.4-0.7-1-1.2-1.7-1.5
		C508.2,23.7,507.5,23.5,506.7,23.5z M506.7,22.8c1,0,1.8,0.1,2.7,0.6c0.8,0.4,1.4,1.1,2,2c0.6,0.8,0.7,1.7,0.7,2.8
		c0,0.8-0.1,1.7-0.7,2.5c-0.4,0.8-1.1,1.4-2,2c-0.8,0.5-1.7,0.7-2.7,0.7c-0.8,0-1.7-0.3-2.5-0.7c-0.8-0.4-1.4-1.1-2-2
		c-0.4-0.8-0.7-1.7-0.7-2.7s0.3-1.8,0.7-2.7c0.6-0.8,1.1-1.4,2-2C505,23,506,22.8,506.7,22.8z"/>
</g>
</svg>
