<?xml version="1.0" encoding="utf-8"?>
<!-- Generator: Adobe Illustrator 26.1.0, SVG Export Plug-In . SVG Version: 6.00 Build 0)  -->
<svg version="1.1" id="Layer_1" xmlns="http://www.w3.org/2000/svg" xmlns:xlink="http://www.w3.org/1999/xlink" x="0px" y="0px"
	 viewBox="0 0 512 210" style="enable-background:new 0 0 512 210;" xml:space="preserve">
<style type="text/css">
	.st0{fill:#ECEDF7;}
</style>
<g>
	<path class="st0" d="M10,84.1c6-22.1,31.2-27.3,54.4-28c19-0.5,40.3,2,40.3,2l-10,36.5c0,0-21.2-2.5-40.3-2
		C31.2,93.2,6,98.5,0,120.5L10,84.1z"/>
	<g>
		<path class="st0" d="M222.7,66.1l-23.6,86.2H219l8.7-31.9h17.2c19,0,31.6-10.5,35-25.1c3.2-13.6-4.8-29.2-26-29.2L222.7,66.1
			L222.7,66.1z M239.8,76.2h7.6c8,0,14.3,6.4,12.8,17.5c-1.4,10.3-12.6,16.5-22.4,16.5h-7.3L239.8,76.2z M427.7,92.9
			c-16.7,0-28.7,14.3-31.6,28.7c-2.8,13.8,5.1,32.1,26.9,32.1c15.4,0,23.2-6.8,23.2-6.8l-3.6-8.8c0,0-6.5,5.3-15.5,5.3
			c-9,0-14.7-7.1-13.5-18.5h36.9C453.2,118.1,454.6,92.9,427.7,92.9L427.7,92.9z M427.6,102.4c10.3,0,8,13.6,8,13.6l-20.7,0
			C414.9,116,418.3,102.4,427.6,102.4L427.6,102.4z M287.9,90.7l-32.6,119.1h19l28.9-105.6h19.7l-13.1,48h19l15.8-57.6h-38.7
			c2-7.3,4.1-15,5.8-21.3c3.2-11.7,8.4-20.1,16-19.8c8.4,0.3,4.1,5.8,3,10c-1.6,5.8,2.7,11.6,10.2,11.6c16.3,0,20.3-29.9-10.2-29.9
			C300,45.2,292.2,74.7,287.9,90.7L287.9,90.7z"/>
		<path class="st0" d="M351.7,94.7l-2.6,9.6h24.1l-37.9,48h53.5l2.6-9.6h-27.2l37.9-48H351.7z M501.3,93.7
			c-12.4,0-19.7,12.8-19.7,12.8l3.2-11.8h-19l-15.8,57.6h19c0,0,4.6-16.8,6.9-25.2c3.6-13.1,10.9-21.4,14.5-21.7
			c4.1-0.4,3.7,9.4,11.6,9.4C514.1,114.8,516.7,93.7,501.3,93.7L501.3,93.7z M154.5,152.4C86.4,148.2,7.2,113,10,84.1l-9.4,34.4
			c-2.9,29.5,70.6,64.6,144,70.4L154.5,152.4z"/>
		<path class="st0" d="M179.3,105c-6,22.1-31.2,27.3-54.4,28c-19,0.5-40.3-2-40.3-2l10-36.5c0,0,21.2,2.5,40.3,2
			c23.2-0.6,48.3-5.9,54.4-28L179.3,105z"/>
	</g>
	<path class="st0" d="M34.7,36.7c68.2,4.3,147.4,39.4,144.6,68.3l9.4-34.4c2.9-29.5-70.6-64.6-144-70.4L34.7,36.7z"/>
	<path class="st0" d="M10,84.1c6-22.1,31.2-27.3,54.4-28c19-0.5,40.3,2,40.3,2l-10,36.5c0,0-21.2-2.5-40.3-2
		C31.2,93.2,6,98.5,0,120.5L10,84.1z"/>
	<path class="st0" d="M154.5,152.4C86.4,148.2,7.2,113,10,84.1l-9.4,34.4c-2.9,29.5,70.6,64.6,144,70.4L154.5,152.4z"/>
	<path class="st0" d="M179.3,105c-6,22.1-31.2,27.3-54.4,28c-19,0.5-40.3-2-40.3-2l10-36.5c0,0,21.2,2.5,40.3,2
		c23.2-0.6,48.3-5.9,54.4-28L179.3,105z"/>
	<path class="st0" d="M34.7,36.7c68.2,4.3,147.4,39.4,144.6,68.3l9.4-34.4c2.9-29.5-70.6-64.6-144-70.4L34.7,36.7z"/>
</g>
</svg>
