<?xml version="1.0" encoding="utf-8"?>
<!-- Generator: Adobe Illustrator 26.1.0, SVG Export Plug-In . SVG Version: 6.00 Build 0)  -->
<svg version="1.1" id="Layer_1" xmlns="http://www.w3.org/2000/svg" xmlns:xlink="http://www.w3.org/1999/xlink" x="0px" y="0px"
	 viewBox="0 0 512 86" style="enable-background:new 0 0 512 86;" xml:space="preserve">
<style type="text/css">
	.st0{fill:#E5E4F5;}
	.st1{fill:#F0F0F9;}
</style>
<g>
	<polygon id="polygon108" class="st0" points="97.9,84 97.9,74.3 97.9,11.7 97.9,2 77,2 77,11.7 77,74.3 77,84 	"/>
	<path class="st0" d="M280.9,43.1c0,13.3-3.7,23.8-10.7,31.4c-7.3,7.6-17.3,11.3-30.1,11.3c-12.8,0-23-3.7-30.1-11.3
		c-7.3-7.6-10.7-18.1-10.7-31.4c0-13.6,3.7-24.1,10.7-31.7s17.3-11.3,30.4-11.3s23,3.7,30.4,11.3C277.5,18.8,280.9,29.5,280.9,43.1
		 M261,43.1c0-8.6-1.8-15.4-5.5-20.4c-3.7-5-8.9-7.6-15.4-7.6c-6.8,0-11.8,2.6-15.4,7.6c-3.7,5-5.5,11.8-5.5,20.4s1.8,15.2,5.5,20.4
		c3.7,5,8.9,7.6,15.4,7.6c6.5,0,11.8-2.6,15.4-7.6C259.1,58.3,261,51.5,261,43.1"/>
	<polygon id="polygon112" class="st1" points="326.2,60.9 345.5,2 366.5,2 338.5,84 314.1,84 286.1,2 307,2 	"/>
	<path id="path114" class="st0" d="M1.8,82.7V66.4c9.2,2.9,17.3,4.2,24.3,4.2c9.9,0,14.7-2.6,14.7-7.9c0-1.8-0.8-3.7-2.1-5
		c-1.6-1.3-5.2-3.4-11.3-5.8C16.8,47.6,9.7,43.7,6.3,40.5C2.1,36.3,0,31.1,0,24.8c0-8.1,3.1-14.4,9.4-18.6c6-4.2,14.1-6.3,24.1-6.3
		c5.5,0,14.4,0.8,24.3,2.9v14.4c-7.9-2.1-15.4-3.4-22-3.4c-9.2,0-13.9,2.6-13.9,7.6c0,1.8,1,3.4,2.9,4.7c1.6,1,5.8,3.1,12.8,6.3
		c9.9,4.4,16.8,8.4,20.2,11.5c3.9,3.9,6,8.9,6,15.2c0,8.9-3.9,15.7-11.5,20.4C46.1,83.4,38,85.3,28,85.3
		C18.8,85.5,10.5,84.8,1.8,82.7z"/>
	<polygon id="polygon116" class="st0" points="113.6,84 113.6,2 139.8,2 168.8,56.7 168.8,2 185.1,2 185.1,84 160.5,84 129.8,28.2 
		129.8,84 	"/>
	<polygon id="polygon118" class="st1" points="399.4,25.1 380.3,84 359.4,84 387.4,2 411.7,2 439.8,84 418.8,84 	"/>
	<path id="path120" class="st1" d="M511.2,68c-6.3,1.8-16,2.9-19.6,2.9c-8.6,0-15.4-2.6-20.4-7.6c-5.2-5-7.6-11.8-7.6-20.2
		s2.6-14.9,7.6-20.2c5-5.2,11.5-7.9,19.9-7.9c3.4,0,11.3,0.5,20.4,3.7V3.9c-2.1-0.8-5-1.6-8.1-2.1C499.4,1,495,0.5,490,0.5
		c-14.1,0-25.4,3.9-33.8,11.8s-12.6,18.3-12.6,31.7c0,13.1,4.2,23.6,12.6,30.9c8.4,7.6,19.6,11.3,34.3,11.3c4.4,0,8.6-0.3,12.6-1
		c3.1-0.5,6-1,8.9-1.8V68H511.2z"/>
</g>
</svg>
